<mxfile host="65bd71144e">
    <diagram id="BVHEK-jUgzZ-NDECGOZN" name="Page-1">
        <mxGraphModel dx="1267" dy="612" grid="1" gridSize="10" guides="1" tooltips="1" connect="1" arrows="1" fold="1" page="1" pageScale="1" pageWidth="850" pageHeight="1100" math="0" shadow="0">
            <root>
                <mxCell id="0"/>
                <mxCell id="1" parent="0"/>
                <mxCell id="2" value="" style="shape=ext;double=1;rounded=0;whiteSpace=wrap;html=1;" vertex="1" parent="1">
                    <mxGeometry x="150" y="150" width="310" height="390" as="geometry"/>
                </mxCell>
                <mxCell id="3" value="0" style="ellipse;shape=doubleEllipse;whiteSpace=wrap;html=1;aspect=fixed;" vertex="1" parent="1">
                    <mxGeometry x="240" y="460" width="60" height="60" as="geometry"/>
                </mxCell>
                <mxCell id="4" value="1" style="ellipse;shape=doubleEllipse;whiteSpace=wrap;html=1;aspect=fixed;" vertex="1" parent="1">
                    <mxGeometry x="170" y="390" width="60" height="60" as="geometry"/>
                </mxCell>
                <mxCell id="5" value="2" style="ellipse;shape=doubleEllipse;whiteSpace=wrap;html=1;aspect=fixed;" vertex="1" parent="1">
                    <mxGeometry x="240" y="390" width="60" height="60" as="geometry"/>
                </mxCell>
                <mxCell id="6" value="3" style="ellipse;shape=doubleEllipse;whiteSpace=wrap;html=1;aspect=fixed;" vertex="1" parent="1">
                    <mxGeometry x="310" y="390" width="60" height="60" as="geometry"/>
                </mxCell>
                <mxCell id="7" value="4" style="ellipse;shape=doubleEllipse;whiteSpace=wrap;html=1;aspect=fixed;" vertex="1" parent="1">
                    <mxGeometry x="170" y="320" width="60" height="60" as="geometry"/>
                </mxCell>
                <mxCell id="8" value="5" style="ellipse;shape=doubleEllipse;whiteSpace=wrap;html=1;aspect=fixed;" vertex="1" parent="1">
                    <mxGeometry x="240" y="320" width="60" height="60" as="geometry"/>
                </mxCell>
                <mxCell id="9" value="6" style="ellipse;shape=doubleEllipse;whiteSpace=wrap;html=1;aspect=fixed;" vertex="1" parent="1">
                    <mxGeometry x="310" y="320" width="60" height="60" as="geometry"/>
                </mxCell>
                <mxCell id="10" value="7" style="ellipse;shape=doubleEllipse;whiteSpace=wrap;html=1;aspect=fixed;" vertex="1" parent="1">
                    <mxGeometry x="170" y="250" width="60" height="60" as="geometry"/>
                </mxCell>
                <mxCell id="11" value="8" style="ellipse;shape=doubleEllipse;whiteSpace=wrap;html=1;aspect=fixed;" vertex="1" parent="1">
                    <mxGeometry x="240" y="250" width="60" height="60" as="geometry"/>
                </mxCell>
                <mxCell id="12" value="9" style="ellipse;shape=doubleEllipse;whiteSpace=wrap;html=1;aspect=fixed;" vertex="1" parent="1">
                    <mxGeometry x="310" y="250" width="60" height="60" as="geometry"/>
                </mxCell>
                <mxCell id="13" value="+" style="ellipse;shape=doubleEllipse;whiteSpace=wrap;html=1;aspect=fixed;" vertex="1" parent="1">
                    <mxGeometry x="380" y="250" width="60" height="60" as="geometry"/>
                </mxCell>
                <mxCell id="14" value="/" style="ellipse;shape=doubleEllipse;whiteSpace=wrap;html=1;aspect=fixed;" vertex="1" parent="1">
                    <mxGeometry x="380" y="460" width="60" height="60" as="geometry"/>
                </mxCell>
                <mxCell id="15" value="*" style="ellipse;shape=doubleEllipse;whiteSpace=wrap;html=1;aspect=fixed;" vertex="1" parent="1">
                    <mxGeometry x="380" y="390" width="60" height="60" as="geometry"/>
                </mxCell>
                <mxCell id="16" value="-" style="ellipse;shape=doubleEllipse;whiteSpace=wrap;html=1;aspect=fixed;" vertex="1" parent="1">
                    <mxGeometry x="380" y="320" width="60" height="60" as="geometry"/>
                </mxCell>
                <mxCell id="17" value="=" style="ellipse;shape=doubleEllipse;whiteSpace=wrap;html=1;aspect=fixed;" vertex="1" parent="1">
                    <mxGeometry x="310" y="460" width="60" height="60" as="geometry"/>
                </mxCell>
                <mxCell id="18" value="Rechnung Anzeige z.b. 1+1=2" style="shape=ext;double=1;rounded=1;whiteSpace=wrap;html=1;" vertex="1" parent="1">
                    <mxGeometry x="170" y="170" width="270" height="70" as="geometry"/>
                </mxCell>
                <mxCell id="19" value="clear" style="ellipse;shape=doubleEllipse;whiteSpace=wrap;html=1;aspect=fixed;" vertex="1" parent="1">
                    <mxGeometry x="170" y="460" width="60" height="60" as="geometry"/>
                </mxCell>
            </root>
        </mxGraphModel>
    </diagram>
</mxfile>